<svg xmlns="http://www.w3.org/2000/svg" xmlns:xlink="http://www.w3.org/1999/xlink" contentStyleType="text/css" data-diagram-type="DESCRIPTION" height="59px" preserveAspectRatio="none" style="width:170px;height:59px;background:#FFFFFF;" version="1.1" viewBox="0 0 170 59" width="170px" zoomAndPan="magnify"><defs/><g><!--entity A--><g class="entity" data-entity="A" data-source-line="2" data-uid="ent0002" id="entity_A"><rect fill="#F1F1F1" height="46.4883" rx="2.5" ry="2.5" style="stroke:#181818;stroke-width:0.5;" width="49.6592" x="7" y="7"/><rect fill="#F1F1F1" height="10" style="stroke:#181818;stroke-width:0.5;" width="15" x="36.6592" y="12"/><rect fill="#F1F1F1" height="2" style="stroke:#181818;stroke-width:0.5;" width="4" x="34.6592" y="14"/><rect fill="#F1F1F1" height="2" style="stroke:#181818;stroke-width:0.5;" width="4" x="34.6592" y="18"/><text fill="#000000" font-family="sans-serif" font-size="14" lengthAdjust="spacing" textLength="9.6592" x="22" y="40.5352">A</text></g><!--entity B--><g class="entity" data-entity="B" data-source-line="2" data-uid="ent0003" id="entity_B"><rect fill="#F1F1F1" height="46.4883" rx="2.5" ry="2.5" style="stroke:#181818;stroke-width:0.5;" width="48.0527" x="116.66" y="7"/><rect fill="#F1F1F1" height="10" style="stroke:#181818;stroke-width:0.5;" width="15" x="144.7127" y="12"/><rect fill="#F1F1F1" height="2" style="stroke:#181818;stroke-width:0.5;" width="4" x="142.7127" y="14"/><rect fill="#F1F1F1" height="2" style="stroke:#181818;stroke-width:0.5;" width="4" x="142.7127" y="18"/><text fill="#000000" font-family="sans-serif" font-size="14" lengthAdjust="spacing" textLength="8.0527" x="131.66" y="40.5352">B</text></g><!--link A to B--><g class="link" data-entity-1="A" data-entity-2="B" data-source-line="2" data-uid="lnk4" id="link_A_B"><path d="M57.08,30.25 C74.81,30.25 92.73,30.25 110.27,30.25" fill="none" id="A-to-B" style="stroke:#181818;stroke-width:1;"/><polygon fill="#181818" points="116.27,30.25,107.27,26.25,111.27,30.25,107.27,34.25,116.27,30.25" style="stroke:#181818;stroke-width:1;"/></g><!--SRC=[oqbDAr4eoLSeoapFA558oInAJIx9pC_ZYdQCLT3LjLE8Tee50000]--></g></svg>